<svg id="Calque_1" data-name="Calque 1" xmlns="http://www.w3.org/2000/svg" viewBox="0 0 300 200"><defs><style>.cls-1,.cls-2{fill:#3489db;}.cls-2{font-size:36px;font-family:ComicSansMS, Comic Sans MS;}</style></defs><title>foodservice</title><g id="Calque_2" data-name="Calque 2"><g id="Calque_1-2" data-name="Calque 1-2"><path class="cls-1" d="M151.73,78.63c2.75-2.32,5.62-4.83,8.58-7.22A19,19,0,0,0,166.89,62a16.22,16.22,0,0,0,.53-7.8,12.71,12.71,0,0,1,3.72-12c2.16-2.12,4.45-4.1,6.54-6.29A4.78,4.78,0,0,1,185.34,37c1.09,2.25,2.23,4.17,3.1,6.51.33.89,1,3,1,3s.62,1.88.78,2.57a38.47,38.47,0,0,1,.67,14.28,64.91,64.91,0,0,1-2.3,9.74,88.89,88.89,0,0,1-9.93,20.45,149.74,149.74,0,0,1-13.93,18.92c-4.44,5.1-9.14,10-13.72,15-.27.29-.57.55-1,1-1.46-1.44-2.92-2.84-4.32-4.29a203,203,0,0,1-18.45-21.95c-1-1.35-1-1.86.28-2.93q9.46-8.11,19-16.18c.84-.71,1.65-1.45,2.6-2.29m1.57.55a7.61,7.61,0,0,1,.76-1"/><path class="cls-1" d="M108.73,59c.36-14.52,5.95-25.66,16.93-34A39.35,39.35,0,0,1,141,18a39.9,39.9,0,0,1,16.41-.31,38.91,38.91,0,0,1,15.17,6.13,4.48,4.48,0,0,1,.71,6.88c-2.79,2.89-5.55,5.87-8.55,8.51-2.72,2.38-6.13,2.87-9.68,2.34-7-1-12.66,1.43-17.17,6.73q-11.52,13.53-23,27.08c-1.23,1.45-2.39,1.27-2.92-.54-.94-3.21-1.84-6.43-2.52-9.7A57.92,57.92,0,0,1,108.73,59Z"/><path class="cls-1" d="M124.9,97.07a2.71,2.71,0,0,1-2.34-1.77,2.28,2.28,0,0,1,.61-2.72l7.43-6.88L151,66.83c.26-.24.52-.5.8-.72a1.9,1.9,0,1,1,2.63,2.72c-2.62,2.61-5.28,5.18-7.93,7.76q-9.78,9.58-19.63,19.15A13.31,13.31,0,0,1,124.9,97.07Z"/><path class="cls-1" d="M120.9,90.53A2.51,2.51,0,0,1,118.73,89a2.27,2.27,0,0,1,.61-2.72c2.5-2.46,5-4.93,7.5-7.38l18.7-18.18a6.48,6.48,0,0,1,.51-.5,2.14,2.14,0,0,1,2.74.06,1.93,1.93,0,0,1-.06,2.61q-3.4,3.59-6.88,7.1-9.54,9.63-19.12,19.24A12.94,12.94,0,0,1,120.9,90.53Z"/><path class="cls-1" d="M117.6,83.82a2.86,2.86,0,0,1-2.6-1.9,2.08,2.08,0,0,1,.58-2.49c1-1.13,2.15-2.19,3.15-3.27L139.89,54.7a2.19,2.19,0,0,1,2.72-.52,1.56,1.56,0,0,1,.77,2,3.74,3.74,0,0,1-.87,1.39q-11.66,12.57-23.36,25.14A8.16,8.16,0,0,1,117.6,83.82Z"/></g></g><text class="cls-2" transform="translate(40.3 170.04)">Food Service</text></svg>