<svg id="Calque_1" data-name="Calque 1" xmlns="http://www.w3.org/2000/svg" viewBox="0 0 87 24"><defs><style>.cls-1,.cls-3{fill:#0045cf;}.cls-2{fill:#fff;}.cls-3{font-size:10px;font-family:Ubuntu-Bold, Ubuntu;font-weight:700;letter-spacing:0.07em;}.cls-4{letter-spacing:0.05em;}</style></defs><title>icrossing-logo-blue</title><path class="cls-1" d="M16.8,12l6.79-6.79L19.14.69,12.3,7.6,5.5.73,1,5.23l6.82,6.82L1,18.82l4.41,4.44h0l2.64-2.63h0l.16-.16,4-4,4.2,4.16,1.91,1.92c.25.26.47.55.66.78l4.55-4.55Zm-6.37,0a1.88,1.88,0,1,1,3.76,0,1.88,1.88,0,0,1-3.76,0Z"/><polygon class="cls-2" points="3.66 7.88 8.14 3.4 8.26 3.55 3.79 8.03 3.66 7.88"/><polygon class="cls-2" points="4.31 8.54 8.8 4.06 8.92 4.21 4.44 8.69 4.31 8.54"/><polygon class="cls-2" points="4.94 9.17 9.42 4.68 9.55 4.83 5.07 9.31 4.94 9.17"/><polygon class="cls-2" points="15.05 19.18 19.53 14.7 19.66 14.85 15.18 19.33 15.05 19.18"/><polygon class="cls-2" points="15.71 19.84 20.19 15.36 20.31 15.51 15.84 19.99 15.71 19.84"/><polygon class="cls-2" points="16.33 20.47 20.81 15.98 20.94 16.13 16.46 20.61 16.33 20.47"/><polygon class="cls-2" points="8.33 20.6 3.85 16.12 4 15.99 8.48 20.47 8.33 20.6"/><polygon class="cls-2" points="8.99 19.94 4.51 15.46 4.66 15.34 9.13 19.81 8.99 19.94"/><polygon class="cls-2" points="9.62 19.32 5.13 14.84 5.28 14.71 9.76 19.19 9.62 19.32"/><polygon class="cls-2" points="19.27 9.51 14.78 5.03 14.93 4.91 19.41 9.38 19.27 9.51"/><polygon class="cls-2" points="19.93 8.86 15.44 4.37 15.59 4.25 20.07 8.73 19.93 8.86"/><polygon class="cls-2" points="20.55 8.23 16.07 3.75 16.21 3.62 20.69 8.1 20.55 8.23"/><polygon class="cls-2" points="7.24 7.21 10.85 10.82 10.98 10.68 7.34 7.04 7.21 7.17 7.24 7.21"/><polygon class="cls-2" points="17.37 16.75 13.76 13.14 13.63 13.28 17.27 16.92 17.41 16.79 17.37 16.75"/><polygon class="cls-2" points="17.08 7.08 13.47 10.69 13.61 10.82 17.25 7.18 17.11 7.05 17.08 7.08"/><polygon class="cls-2" points="7.49 16.96 11.1 13.35 10.95 13.22 7.31 16.86 7.45 17 7.49 16.96"/><circle class="cls-2" cx="12.31" cy="12" r="1.88"/><text class="cls-3" transform="translate(23.57 16.57) scale(1 1.42)">IC<tspan class="cls-4" x="11.04" y="0">R</tspan><tspan x="18.23" y="0">OSSING</tspan></text></svg>